<svg width="14" height="12" viewBox="0 0 14 12" fill="none" xmlns="http://www.w3.org/2000/svg">
<path fill-rule="evenodd" clip-rule="evenodd" d="M12.9826 4.51336C12.8972 4.26041 12.6716 4.07593 12.3982 4.0382L8.77636 3.52949L7.15781 0.35847C6.91481 -0.11949 6.10337 -0.11949 5.86037 0.35847L4.24182 3.52949L0.619967 4.0382C0.346592 4.07593 0.12095 4.26041 0.0356104 4.51336C-0.0497287 4.76632 0.0211462 5.04303 0.21786 5.2289L2.83878 7.69696L2.22116 11.1824C2.17343 11.4438 2.2848 11.7093 2.50755 11.8658C2.73175 12.0238 3.02827 12.0433 3.26982 11.9189L6.50837 10.274L9.74836 11.9189C9.85395 11.972 9.96967 11.9986 10.0854 11.9986C10.2344 11.9986 10.3848 11.9539 10.5106 11.8658C10.7319 11.7093 10.8433 11.4438 10.797 11.1824L10.1794 7.69696L12.8003 5.2289C12.997 5.04303 13.0679 4.76632 12.9826 4.51336Z" fill="#FF3365"/>
</svg>
